<svg width="14" height="14" viewBox="0 0 14 14" fill="none" xmlns="http://www.w3.org/2000/svg">
<path d="M11.8 3.8H1.79998V3.4L10.6 2.696V3.4H11.8V2.2C11.8 1.32 11.0872 0.702404 10.2168 0.826404L2.18398 1.9736C1.31278 2.0984 0.599976 2.92 0.599976 3.8V11.8C0.599976 12.2244 0.768546 12.6313 1.0686 12.9314C1.36866 13.2314 1.77563 13.4 2.19998 13.4H11.8C12.2243 13.4 12.6313 13.2314 12.9313 12.9314C13.2314 12.6313 13.4 12.2244 13.4 11.8V5.4C13.4 4.97566 13.2314 4.56869 12.9313 4.26863C12.6313 3.96858 12.2243 3.8 11.8 3.8ZM10.6 9.4048C10.4423 9.40475 10.2863 9.37365 10.1406 9.31328C9.99501 9.2529 9.86271 9.16444 9.75128 9.05293C9.63985 8.94143 9.55147 8.80907 9.4912 8.66341C9.43092 8.51775 9.39992 8.36164 9.39997 8.204C9.40003 8.04637 9.43113 7.89028 9.4915 7.74466C9.55188 7.59904 9.64034 7.46674 9.75185 7.35531C9.86335 7.24388 9.99571 7.1555 10.1414 7.09523C10.287 7.03495 10.4431 7.00395 10.6008 7.004C10.9191 7.00411 11.2244 7.13068 11.4495 7.35588C11.6745 7.58107 11.8009 7.88644 11.8008 8.2048C11.8007 8.52317 11.6741 8.82845 11.4489 9.0535C11.2237 9.27854 10.9183 9.40491 10.6 9.4048Z" fill="#0B9567"/>
</svg>
