<svg width="539" height="802" viewBox="0 0 539 802" fill="none" xmlns="http://www.w3.org/2000/svg">
<g clip-path="url(#clip0_15_934)">
<g opacity="0.3" filter="url(#filter0_f_15_934)">
<path fill-rule="evenodd" clip-rule="evenodd" d="M589.209 348.001C578.173 382.669 552.914 409.19 530.037 437.462C510.326 461.821 489.32 483.535 464.292 502.373C436.414 523.356 410.122 552.558 375.273 553.946C340.311 555.339 310.951 529.407 282.067 509.634C254.911 491.044 235.575 465.428 212.166 442.286C180.126 410.612 124.833 392.642 118.566 348.001C112.507 304.845 156.489 271.35 183.353 237.061C207.162 206.671 233.738 179.755 266.438 159.262C300.015 138.22 336.082 111.019 375.273 116.785C414.401 122.54 431.038 172.499 467.088 188.779C509.116 207.758 571.755 181.58 599.836 218.192C626.703 253.222 602.604 305.919 589.209 348.001Z" fill="#FF9882"/>
</g>
<g opacity="0.3" filter="url(#filter1_f_15_934)">
<path fill-rule="evenodd" clip-rule="evenodd" d="M648.209 470.001C637.173 504.669 611.914 531.19 589.037 559.462C569.326 583.821 548.32 605.535 523.292 624.373C495.414 645.356 469.122 674.558 434.273 675.946C399.311 677.339 369.951 651.407 341.067 631.634C313.911 613.044 294.575 587.428 271.166 564.286C239.126 532.612 183.833 514.642 177.566 470.001C171.507 426.845 215.489 393.35 242.353 359.061C266.162 328.671 292.738 301.755 325.438 281.262C359.015 260.22 395.082 233.019 434.273 238.785C473.401 244.54 490.038 294.499 526.088 310.779C568.116 329.758 630.755 303.58 658.836 340.192C685.703 375.222 661.604 427.919 648.209 470.001Z" fill="#FFFA82"/>
</g>
</g>
<defs>
<filter id="filter0_f_15_934" x="-2" y="-3.99997" width="734" height="678" filterUnits="userSpaceOnUse" color-interpolation-filters="sRGB">
<feFlood flood-opacity="0" result="BackgroundImageFix"/>
<feBlend mode="normal" in="SourceGraphic" in2="BackgroundImageFix" result="shape"/>
<feGaussianBlur stdDeviation="60" result="effect1_foregroundBlur_15_934"/>
</filter>
<filter id="filter1_f_15_934" x="57" y="118" width="734" height="678" filterUnits="userSpaceOnUse" color-interpolation-filters="sRGB">
<feFlood flood-opacity="0" result="BackgroundImageFix"/>
<feBlend mode="normal" in="SourceGraphic" in2="BackgroundImageFix" result="shape"/>
<feGaussianBlur stdDeviation="60" result="effect1_foregroundBlur_15_934"/>
</filter>
<clipPath id="clip0_15_934">
<rect width="539" height="802" fill="white"/>
</clipPath>
</defs>
</svg>
