<svg width="24" height="20" viewBox="0 0 24 20" fill="none" xmlns="http://www.w3.org/2000/svg">
<path d="M24 2.3698C23.0997 2.77727 22.1472 3.04573 21.1724 3.16667C22.1968 2.54187 22.9672 1.54926 23.339 0.375009C22.3705 0.9649 21.3127 1.3788 20.2109 1.59897C19.7471 1.09247 19.189 0.689541 18.5709 0.414667C17.9529 0.139793 17.2875 -0.00128507 16.6155 8.82003e-06C13.8944 8.82003e-06 11.6925 2.26042 11.6925 5.04688C11.6905 5.43446 11.7332 5.8209 11.8195 6.19793C9.86833 6.10264 7.95775 5.58416 6.20998 4.67566C4.46221 3.76715 2.91574 2.48863 1.66949 0.921883C1.23228 1.68965 1.00106 2.56566 0.999998 3.45834C0.999998 5.20834 1.8765 6.75522 3.2 7.66146C2.41586 7.64208 1.64779 7.42589 0.960999 7.03125V7.09375C0.960999 9.54166 2.661 11.5781 4.911 12.0417C4.48789 12.1591 4.05188 12.2187 3.614 12.2188C3.30329 12.2193 2.99328 12.1879 2.6885 12.125C3.314 14.1302 5.1345 15.5886 7.29099 15.6302C5.53868 17.0369 3.3873 17.7973 1.175 17.7917C0.782308 17.7911 0.389982 17.7667 0 17.7187C2.25059 19.2157 4.86671 20.0076 7.53698 19.9999C16.605 19.9999 21.559 12.3072 21.559 5.63542C21.559 5.41668 21.5534 5.19792 21.5434 4.98438C22.5051 4.27191 23.3368 3.38653 24 2.3698Z" fill="#1B1C57"/>
</svg>
